<svg width="50" height="38" viewBox="0 0 50 38" fill="none" xmlns="http://www.w3.org/2000/svg">
<path d="M45.8333 0H4.16667C1.89583 0.0833333 0.0833333 1.89583 0 4.16667V33.3333C0.0833333 35.6042 1.89583 37.4167 4.16667 37.5H45.8333C48.1042 37.4167 49.9167 35.6042 50 33.3333V4.16667C49.9617 3.0738 49.5104 2.03613 48.7371 1.26289C47.9639 0.48964 46.9262 0.0383446 45.8333 0ZM45.8333 33.3333H4.16667V4.16667H45.8333V33.3333ZM29.1667 29.1667V26.5625C29.1667 23.1042 22.2083 21.3542 18.75 21.3542C15.2917 21.3542 8.33333 23.1042 8.33333 26.5625V29.1667H29.1667ZM18.75 8.33333C17.3687 8.33333 16.0439 8.88207 15.0672 9.85882C14.0904 10.8356 13.5417 12.1603 13.5417 13.5417C13.5417 14.2256 13.6764 14.9029 13.9381 15.5348C14.1999 16.1667 14.5835 16.7409 15.0672 17.2245C16.0439 18.2013 17.3687 18.75 18.75 18.75C19.434 18.75 20.1112 18.6153 20.7431 18.3535C21.375 18.0918 21.9492 17.7082 22.4328 17.2245C22.9165 16.7409 23.3001 16.1667 23.5619 15.5348C23.8236 14.9029 23.9583 14.2256 23.9583 13.5417C23.9583 12.8577 23.8236 12.1804 23.5619 11.5485C23.3001 10.9166 22.9165 10.3425 22.4328 9.85882C21.9492 9.37518 21.375 8.99154 20.7431 8.72979C20.1112 8.46805 19.434 8.33333 18.75 8.33333M29.1667 8.33333V10.4167H41.6667V8.33333H29.1667ZM29.1667 12.5V14.5833H41.6667V12.5H29.1667ZM29.1667 16.6667V18.75H37.5V16.6667H29.1667Z" fill="black"/>
</svg>
