<svg width="50" height="50" viewBox="0 0 50 50" fill="none" xmlns="http://www.w3.org/2000/svg">
<path fill-rule="evenodd" clip-rule="evenodd" d="M4.6875 44.5312C4.6875 44.9625 5.0375 45.3125 5.46875 45.3125H12.5V41.4062C12.5 40.7846 12.7469 40.1885 13.1865 39.749C13.626 39.3094 14.2221 39.0625 14.8437 39.0625H22.6562C23.2778 39.0625 23.874 39.3094 24.3135 39.749C24.7531 40.1885 25 40.7846 25 41.4062V45.3125H32.0312C32.2384 45.3125 32.4372 45.2302 32.5837 45.0837C32.7302 44.9372 32.8125 44.7384 32.8125 44.5312V5.46875C32.8125 5.26155 32.7302 5.06283 32.5837 4.91632C32.4372 4.76981 32.2384 4.6875 32.0312 4.6875H5.46875C5.26155 4.6875 5.06283 4.76981 4.91632 4.91632C4.76981 5.06283 4.6875 5.26155 4.6875 5.46875V44.5312ZM5.46875 50C4.01835 50 2.62735 49.4238 1.60176 48.3982C0.57617 47.3726 0 45.9816 0 44.5312L0 5.46875C0 2.45 2.45 0 5.46875 0H32.0312C35.05 0 37.5 2.45 37.5 5.46875V44.5312C37.5 44.7969 37.4812 45.0562 37.4437 45.3125H44.5312C44.7384 45.3125 44.9372 45.2302 45.0837 45.0837C45.2302 44.9372 45.3125 44.7384 45.3125 44.5312V25.8906C45.3126 25.7621 45.281 25.6355 45.2205 25.5222C45.16 25.4088 45.0724 25.3121 44.9656 25.2406L41.6687 23.0437C41.409 22.8747 41.1853 22.6557 41.0107 22.3996C40.8361 22.1435 40.7141 21.8553 40.6516 21.5517C40.5892 21.2481 40.5876 20.9352 40.6469 20.6309C40.7062 20.3267 40.8253 20.0373 40.9972 19.7794C41.1691 19.5215 41.3905 19.3002 41.6485 19.1285C41.9065 18.9567 42.196 18.8378 42.5003 18.7787C42.8046 18.7196 43.1175 18.7214 43.4211 18.7841C43.7246 18.8467 44.0128 18.969 44.2687 19.1437L47.5656 21.3406C49.0875 22.3562 50 24.0625 50 25.8906V44.5312C50 45.9816 49.4238 47.3726 48.3982 48.3982C47.3726 49.4238 45.9816 50 44.5312 50H33.5937C33.3858 50.0003 33.1788 49.973 32.9781 49.9187C32.6687 49.9719 32.3531 50 32.0312 50H22.6562C22.0346 50 21.4385 49.7531 20.999 49.3135C20.5594 48.874 20.3125 48.2778 20.3125 47.6562V43.75H17.1875V47.6562C17.1875 48.2778 16.9406 48.874 16.501 49.3135C16.0615 49.7531 15.4653 50 14.8437 50H5.46875ZM9.375 11.7187C9.375 11.0971 9.62193 10.501 10.0615 10.0615C10.501 9.62193 11.0971 9.375 11.7187 9.375H13.2812C13.9028 9.375 14.499 9.62193 14.9385 10.0615C15.3781 10.501 15.625 11.0971 15.625 11.7187C15.625 12.3403 15.3781 12.9365 14.9385 13.376C14.499 13.8156 13.9028 14.0625 13.2812 14.0625H11.7187C11.0971 14.0625 10.501 13.8156 10.0615 13.376C9.62193 12.9365 9.375 12.3403 9.375 11.7187V11.7187ZM11.7187 18.75C11.0971 18.75 10.501 18.9969 10.0615 19.4365C9.62193 19.876 9.375 20.4721 9.375 21.0937C9.375 21.7153 9.62193 22.3115 10.0615 22.751C10.501 23.1906 11.0971 23.4375 11.7187 23.4375H13.2812C13.9028 23.4375 14.499 23.1906 14.9385 22.751C15.3781 22.3115 15.625 21.7153 15.625 21.0937C15.625 20.4721 15.3781 19.876 14.9385 19.4365C14.499 18.9969 13.9028 18.75 13.2812 18.75H11.7187ZM9.375 30.4687C9.375 29.8471 9.62193 29.251 10.0615 28.8115C10.501 28.3719 11.0971 28.125 11.7187 28.125H13.2812C13.9028 28.125 14.499 28.3719 14.9385 28.8115C15.3781 29.251 15.625 29.8471 15.625 30.4687C15.625 31.0903 15.3781 31.6865 14.9385 32.126C14.499 32.5656 13.9028 32.8125 13.2812 32.8125H11.7187C11.0971 32.8125 10.501 32.5656 10.0615 32.126C9.62193 31.6865 9.375 31.0903 9.375 30.4687ZM24.2187 28.125C23.5971 28.125 23.001 28.3719 22.5615 28.8115C22.1219 29.251 21.875 29.8471 21.875 30.4687C21.875 31.0903 22.1219 31.6865 22.5615 32.126C23.001 32.5656 23.5971 32.8125 24.2187 32.8125H25.7812C26.4028 32.8125 26.999 32.5656 27.4385 32.126C27.8781 31.6865 28.125 31.0903 28.125 30.4687C28.125 29.8471 27.8781 29.251 27.4385 28.8115C26.999 28.3719 26.4028 28.125 25.7812 28.125H24.2187ZM21.875 21.0937C21.875 20.4721 22.1219 19.876 22.5615 19.4365C23.001 18.9969 23.5971 18.75 24.2187 18.75H25.7812C26.4028 18.75 26.999 18.9969 27.4385 19.4365C27.8781 19.876 28.125 20.4721 28.125 21.0937C28.125 21.7153 27.8781 22.3115 27.4385 22.751C26.999 23.1906 26.4028 23.4375 25.7812 23.4375H24.2187C23.5971 23.4375 23.001 23.1906 22.5615 22.751C22.1219 22.3115 21.875 21.7153 21.875 21.0937ZM24.2187 9.375C23.5971 9.375 23.001 9.62193 22.5615 10.0615C22.1219 10.501 21.875 11.0971 21.875 11.7187C21.875 12.3403 22.1219 12.9365 22.5615 13.376C23.001 13.8156 23.5971 14.0625 24.2187 14.0625H25.7812C26.4028 14.0625 26.999 13.8156 27.4385 13.376C27.8781 12.9365 28.125 12.3403 28.125 11.7187C28.125 11.0971 27.8781 10.501 27.4385 10.0615C26.999 9.62193 26.4028 9.375 25.7812 9.375H24.2187Z" fill="black"/>
</svg>
